<mxfile host="app.diagrams.net" agent="Mozilla/5.0 (Windows NT 10.0; Win64; x64) AppleWebKit/537.36 (KHTML, like Gecko) Chrome/134.0.0.0 Safari/537.36" version="26.1.1">
  <diagram name="Page-1" id="DCm-ar1Eky9uJxvyvpG0">
    <mxGraphModel dx="1050" dy="522" grid="1" gridSize="10" guides="1" tooltips="1" connect="1" arrows="1" fold="1" page="1" pageScale="1" pageWidth="827" pageHeight="1169" math="0" shadow="0">
      <root>
        <mxCell id="0" />
        <mxCell id="1" parent="0" />
        <mxCell id="z8U9DUlXNuuj7vIxIh7R-10" style="edgeStyle=orthogonalEdgeStyle;rounded=0;orthogonalLoop=1;jettySize=auto;html=1;entryX=0;entryY=0.5;entryDx=0;entryDy=0;" edge="1" parent="1" source="z8U9DUlXNuuj7vIxIh7R-1" target="z8U9DUlXNuuj7vIxIh7R-2">
          <mxGeometry relative="1" as="geometry" />
        </mxCell>
        <mxCell id="z8U9DUlXNuuj7vIxIh7R-1" value="" style="strokeWidth=2;html=1;shape=mxgraph.flowchart.multi-document;whiteSpace=wrap;" vertex="1" parent="1">
          <mxGeometry x="30" y="15" width="110" height="190" as="geometry" />
        </mxCell>
        <mxCell id="z8U9DUlXNuuj7vIxIh7R-11" style="edgeStyle=orthogonalEdgeStyle;rounded=0;orthogonalLoop=1;jettySize=auto;html=1;strokeWidth=1;fontSize=16;" edge="1" parent="1" source="z8U9DUlXNuuj7vIxIh7R-2" target="z8U9DUlXNuuj7vIxIh7R-3">
          <mxGeometry relative="1" as="geometry" />
        </mxCell>
        <mxCell id="z8U9DUlXNuuj7vIxIh7R-19" style="edgeStyle=orthogonalEdgeStyle;rounded=0;orthogonalLoop=1;jettySize=auto;html=1;entryX=0;entryY=0.5;entryDx=0;entryDy=0;strokeWidth=1;fontSize=16;" edge="1" parent="1" source="z8U9DUlXNuuj7vIxIh7R-2" target="z8U9DUlXNuuj7vIxIh7R-4">
          <mxGeometry relative="1" as="geometry" />
        </mxCell>
        <mxCell id="z8U9DUlXNuuj7vIxIh7R-2" value="" style="rounded=0;whiteSpace=wrap;html=1;strokeWidth=1;fontSize=16;" vertex="1" parent="1">
          <mxGeometry x="220" y="80" width="120" height="60" as="geometry" />
        </mxCell>
        <mxCell id="z8U9DUlXNuuj7vIxIh7R-3" value="" style="rounded=1;whiteSpace=wrap;html=1;strokeWidth=1;fontSize=16;" vertex="1" parent="1">
          <mxGeometry x="220" y="240" width="120" height="60" as="geometry" />
        </mxCell>
        <mxCell id="z8U9DUlXNuuj7vIxIh7R-4" value="" style="rounded=1;whiteSpace=wrap;html=1;strokeWidth=1;fontSize=16;" vertex="1" parent="1">
          <mxGeometry x="420" y="80" width="120" height="60" as="geometry" />
        </mxCell>
        <mxCell id="z8U9DUlXNuuj7vIxIh7R-5" value="" style="whiteSpace=wrap;html=1;aspect=fixed;" vertex="1" parent="1">
          <mxGeometry x="620" y="40" width="180" height="180" as="geometry" />
        </mxCell>
        <mxCell id="z8U9DUlXNuuj7vIxIh7R-6" value="" style="rounded=1;whiteSpace=wrap;html=1;" vertex="1" parent="1">
          <mxGeometry x="650" y="140" width="120" height="60" as="geometry" />
        </mxCell>
        <mxCell id="z8U9DUlXNuuj7vIxIh7R-17" style="edgeStyle=orthogonalEdgeStyle;rounded=0;orthogonalLoop=1;jettySize=auto;html=1;entryX=0;entryY=0.5;entryDx=0;entryDy=0;" edge="1" parent="1" source="z8U9DUlXNuuj7vIxIh7R-7" target="z8U9DUlXNuuj7vIxIh7R-9">
          <mxGeometry relative="1" as="geometry" />
        </mxCell>
        <mxCell id="z8U9DUlXNuuj7vIxIh7R-18" style="edgeStyle=orthogonalEdgeStyle;rounded=0;orthogonalLoop=1;jettySize=auto;html=1;entryX=0;entryY=0.5;entryDx=0;entryDy=0;" edge="1" parent="1" source="z8U9DUlXNuuj7vIxIh7R-7" target="z8U9DUlXNuuj7vIxIh7R-8">
          <mxGeometry relative="1" as="geometry" />
        </mxCell>
        <mxCell id="z8U9DUlXNuuj7vIxIh7R-7" value="" style="shape=cylinder3;whiteSpace=wrap;html=1;boundedLbl=1;backgroundOutline=1;size=15;" vertex="1" parent="1">
          <mxGeometry x="450" y="255" width="110" height="180" as="geometry" />
        </mxCell>
        <mxCell id="z8U9DUlXNuuj7vIxIh7R-8" value="" style="rounded=0;whiteSpace=wrap;html=1;fillColor=#d5e8d4;strokeColor=#82b366;" vertex="1" parent="1">
          <mxGeometry x="660" y="300" width="110" height="30" as="geometry" />
        </mxCell>
        <mxCell id="z8U9DUlXNuuj7vIxIh7R-9" value="" style="rounded=0;whiteSpace=wrap;html=1;fillColor=#f8cecc;strokeColor=#b85450;" vertex="1" parent="1">
          <mxGeometry x="660" y="350" width="110" height="30" as="geometry" />
        </mxCell>
        <mxCell id="z8U9DUlXNuuj7vIxIh7R-13" style="edgeStyle=orthogonalEdgeStyle;rounded=0;orthogonalLoop=1;jettySize=auto;html=1;entryX=0;entryY=0.5;entryDx=0;entryDy=0;entryPerimeter=0;strokeWidth=1;fontSize=16;" edge="1" parent="1" source="z8U9DUlXNuuj7vIxIh7R-3" target="z8U9DUlXNuuj7vIxIh7R-7">
          <mxGeometry relative="1" as="geometry" />
        </mxCell>
        <mxCell id="z8U9DUlXNuuj7vIxIh7R-15" style="edgeStyle=orthogonalEdgeStyle;rounded=0;orthogonalLoop=1;jettySize=auto;html=1;entryX=0.5;entryY=0;entryDx=0;entryDy=0;entryPerimeter=0;" edge="1" parent="1" source="z8U9DUlXNuuj7vIxIh7R-5" target="z8U9DUlXNuuj7vIxIh7R-7">
          <mxGeometry relative="1" as="geometry">
            <Array as="points">
              <mxPoint x="710" y="240" />
              <mxPoint x="505" y="240" />
            </Array>
          </mxGeometry>
        </mxCell>
        <mxCell id="z8U9DUlXNuuj7vIxIh7R-20" style="edgeStyle=orthogonalEdgeStyle;rounded=0;orthogonalLoop=1;jettySize=auto;html=1;entryX=0.011;entryY=0.384;entryDx=0;entryDy=0;entryPerimeter=0;" edge="1" parent="1" source="z8U9DUlXNuuj7vIxIh7R-4" target="z8U9DUlXNuuj7vIxIh7R-5">
          <mxGeometry relative="1" as="geometry" />
        </mxCell>
        <mxCell id="z8U9DUlXNuuj7vIxIh7R-21" value="&lt;font&gt;Bug Reports&lt;/font&gt;" style="text;html=1;align=center;verticalAlign=middle;whiteSpace=wrap;rounded=0;fontSize=16;" vertex="1" parent="1">
          <mxGeometry x="50" y="70" width="60" height="30" as="geometry" />
        </mxCell>
        <mxCell id="z8U9DUlXNuuj7vIxIh7R-23" value="Title" style="text;html=1;align=center;verticalAlign=middle;whiteSpace=wrap;rounded=0;fontSize=16;" vertex="1" parent="1">
          <mxGeometry x="40" y="115" width="60" height="30" as="geometry" />
        </mxCell>
        <mxCell id="z8U9DUlXNuuj7vIxIh7R-24" value="Body" style="text;html=1;align=center;verticalAlign=middle;whiteSpace=wrap;rounded=0;fontSize=16;" vertex="1" parent="1">
          <mxGeometry x="40" y="140" width="60" height="30" as="geometry" />
        </mxCell>
        <mxCell id="z8U9DUlXNuuj7vIxIh7R-25" value="Pre-Processing" style="text;html=1;align=center;verticalAlign=middle;whiteSpace=wrap;rounded=0;strokeWidth=1;fontSize=16;" vertex="1" parent="1">
          <mxGeometry x="230" y="95" width="100" height="30" as="geometry" />
        </mxCell>
        <mxCell id="z8U9DUlXNuuj7vIxIh7R-26" value="Training Set" style="text;html=1;align=center;verticalAlign=middle;whiteSpace=wrap;rounded=0;strokeWidth=1;fontSize=16;" vertex="1" parent="1">
          <mxGeometry x="430" y="95" width="100" height="30" as="geometry" />
        </mxCell>
        <mxCell id="z8U9DUlXNuuj7vIxIh7R-27" value="Testing Set" style="text;html=1;align=center;verticalAlign=middle;whiteSpace=wrap;rounded=0;strokeWidth=1;fontSize=16;" vertex="1" parent="1">
          <mxGeometry x="230" y="255" width="90" height="30" as="geometry" />
        </mxCell>
        <mxCell id="z8U9DUlXNuuj7vIxIh7R-28" value="Model Training" style="text;html=1;align=center;verticalAlign=middle;whiteSpace=wrap;rounded=0;fontSize=18;" vertex="1" parent="1">
          <mxGeometry x="630" y="60" width="150" height="30" as="geometry" />
        </mxCell>
        <mxCell id="z8U9DUlXNuuj7vIxIh7R-29" value="BERT Pre-trained" style="text;html=1;align=center;verticalAlign=middle;whiteSpace=wrap;rounded=0;fontSize=16;" vertex="1" parent="1">
          <mxGeometry x="655" y="145" width="110" height="45" as="geometry" />
        </mxCell>
        <mxCell id="z8U9DUlXNuuj7vIxIh7R-30" value="Fine-tuned Trained Model" style="text;html=1;align=center;verticalAlign=middle;whiteSpace=wrap;rounded=0;strokeWidth=1;fontSize=16;" vertex="1" parent="1">
          <mxGeometry x="455" y="300" width="100" height="100" as="geometry" />
        </mxCell>
        <mxCell id="z8U9DUlXNuuj7vIxIh7R-31" value="Is a Bug" style="text;html=1;align=center;verticalAlign=middle;whiteSpace=wrap;rounded=0;fontSize=14;" vertex="1" parent="1">
          <mxGeometry x="685" y="300" width="60" height="30" as="geometry" />
        </mxCell>
        <mxCell id="z8U9DUlXNuuj7vIxIh7R-32" value="Not a Bug" style="text;html=1;align=center;verticalAlign=middle;whiteSpace=wrap;rounded=0;fontSize=14;" vertex="1" parent="1">
          <mxGeometry x="677.5" y="350" width="75" height="30" as="geometry" />
        </mxCell>
      </root>
    </mxGraphModel>
  </diagram>
</mxfile>
